<mxfile host="app.diagrams.net" agent="Mozilla/5.0 (Windows NT 10.0; Win64; x64) AppleWebKit/537.36 (KHTML, like Gecko) Chrome/141.0.0.0 Safari/537.36" version="28.2.4">
  <diagram name="Trang-1" id="ZFckXqsjIdXHRsRysgjw">
    <mxGraphModel dx="785" dy="451" grid="1" gridSize="10" guides="1" tooltips="1" connect="1" arrows="1" fold="1" page="1" pageScale="1" pageWidth="827" pageHeight="1169" math="0" shadow="0">
      <root>
        <mxCell id="0" />
        <mxCell id="1" parent="0" />
        <mxCell id="5UzwqO1FMWDa7kcP7ygJ-90" value="Start" style="ellipse;whiteSpace=wrap;html=1;" vertex="1" parent="1">
          <mxGeometry x="330" y="30" width="120" height="80" as="geometry" />
        </mxCell>
        <mxCell id="5UzwqO1FMWDa7kcP7ygJ-91" value="End" style="ellipse;whiteSpace=wrap;html=1;" vertex="1" parent="1">
          <mxGeometry x="330" y="505" width="120" height="80" as="geometry" />
        </mxCell>
        <mxCell id="5UzwqO1FMWDa7kcP7ygJ-92" value="Nhập 2 số a và b" style="shape=parallelogram;perimeter=parallelogramPerimeter;whiteSpace=wrap;html=1;fixedSize=1;" vertex="1" parent="1">
          <mxGeometry x="330" y="150" width="120" height="60" as="geometry" />
        </mxCell>
        <mxCell id="5UzwqO1FMWDa7kcP7ygJ-93" value="Kiểm tra a==0" style="rhombus;whiteSpace=wrap;html=1;" vertex="1" parent="1">
          <mxGeometry x="335" y="250" width="110" height="80" as="geometry" />
        </mxCell>
        <mxCell id="5UzwqO1FMWDa7kcP7ygJ-94" value="Phương trình có nghiệm duy nhất x=-b/a" style="shape=parallelogram;perimeter=parallelogramPerimeter;whiteSpace=wrap;html=1;fixedSize=1;" vertex="1" parent="1">
          <mxGeometry x="100" y="260" width="160" height="60" as="geometry" />
        </mxCell>
        <mxCell id="5UzwqO1FMWDa7kcP7ygJ-95" value="" style="endArrow=classic;html=1;rounded=0;exitX=0;exitY=0.5;exitDx=0;exitDy=0;entryX=1;entryY=0.5;entryDx=0;entryDy=0;" edge="1" parent="1" source="5UzwqO1FMWDa7kcP7ygJ-93" target="5UzwqO1FMWDa7kcP7ygJ-94">
          <mxGeometry width="50" height="50" relative="1" as="geometry">
            <mxPoint x="160" y="180" as="sourcePoint" />
            <mxPoint x="210" y="130" as="targetPoint" />
          </mxGeometry>
        </mxCell>
        <mxCell id="5UzwqO1FMWDa7kcP7ygJ-96" value="No" style="edgeLabel;html=1;align=center;verticalAlign=middle;resizable=0;points=[];" vertex="1" connectable="0" parent="5UzwqO1FMWDa7kcP7ygJ-95">
          <mxGeometry x="0.0275" y="-1" relative="1" as="geometry">
            <mxPoint as="offset" />
          </mxGeometry>
        </mxCell>
        <mxCell id="5UzwqO1FMWDa7kcP7ygJ-97" value="Kiểm tra b==0" style="rhombus;whiteSpace=wrap;html=1;" vertex="1" parent="1">
          <mxGeometry x="340" y="380" width="100" height="80" as="geometry" />
        </mxCell>
        <mxCell id="5UzwqO1FMWDa7kcP7ygJ-98" value="" style="endArrow=classic;html=1;rounded=0;exitX=0.5;exitY=1;exitDx=0;exitDy=0;" edge="1" parent="1" source="5UzwqO1FMWDa7kcP7ygJ-93" target="5UzwqO1FMWDa7kcP7ygJ-97">
          <mxGeometry width="50" height="50" relative="1" as="geometry">
            <mxPoint x="100" y="440" as="sourcePoint" />
            <mxPoint x="150" y="390" as="targetPoint" />
          </mxGeometry>
        </mxCell>
        <mxCell id="5UzwqO1FMWDa7kcP7ygJ-99" value="Yes" style="edgeLabel;html=1;align=center;verticalAlign=middle;resizable=0;points=[];" vertex="1" connectable="0" parent="5UzwqO1FMWDa7kcP7ygJ-98">
          <mxGeometry x="-0.3333" y="-2" relative="1" as="geometry">
            <mxPoint as="offset" />
          </mxGeometry>
        </mxCell>
        <mxCell id="5UzwqO1FMWDa7kcP7ygJ-100" value="Phương trình vô số nghiệm" style="shape=parallelogram;perimeter=parallelogramPerimeter;whiteSpace=wrap;html=1;fixedSize=1;" vertex="1" parent="1">
          <mxGeometry x="100" y="390" width="130" height="60" as="geometry" />
        </mxCell>
        <mxCell id="5UzwqO1FMWDa7kcP7ygJ-101" value="" style="endArrow=classic;html=1;rounded=0;exitX=0;exitY=0.5;exitDx=0;exitDy=0;entryX=1;entryY=0.5;entryDx=0;entryDy=0;" edge="1" parent="1" source="5UzwqO1FMWDa7kcP7ygJ-97" target="5UzwqO1FMWDa7kcP7ygJ-100">
          <mxGeometry width="50" height="50" relative="1" as="geometry">
            <mxPoint x="190" y="530" as="sourcePoint" />
            <mxPoint x="240" y="480" as="targetPoint" />
          </mxGeometry>
        </mxCell>
        <mxCell id="5UzwqO1FMWDa7kcP7ygJ-102" value="Yes" style="edgeLabel;html=1;align=center;verticalAlign=middle;resizable=0;points=[];" vertex="1" connectable="0" parent="5UzwqO1FMWDa7kcP7ygJ-101">
          <mxGeometry x="-0.0222" y="-1" relative="1" as="geometry">
            <mxPoint as="offset" />
          </mxGeometry>
        </mxCell>
        <mxCell id="5UzwqO1FMWDa7kcP7ygJ-103" value="Phương trình vô nghiệm" style="shape=parallelogram;perimeter=parallelogramPerimeter;whiteSpace=wrap;html=1;fixedSize=1;" vertex="1" parent="1">
          <mxGeometry x="550" y="390" width="120" height="60" as="geometry" />
        </mxCell>
        <mxCell id="5UzwqO1FMWDa7kcP7ygJ-104" value="" style="endArrow=classic;html=1;rounded=0;exitX=1;exitY=0.5;exitDx=0;exitDy=0;" edge="1" parent="1" source="5UzwqO1FMWDa7kcP7ygJ-97" target="5UzwqO1FMWDa7kcP7ygJ-103">
          <mxGeometry width="50" height="50" relative="1" as="geometry">
            <mxPoint x="450" y="380" as="sourcePoint" />
            <mxPoint x="500" y="330" as="targetPoint" />
          </mxGeometry>
        </mxCell>
        <mxCell id="5UzwqO1FMWDa7kcP7ygJ-105" value="No" style="edgeLabel;html=1;align=center;verticalAlign=middle;resizable=0;points=[];" vertex="1" connectable="0" parent="5UzwqO1FMWDa7kcP7ygJ-104">
          <mxGeometry x="-0.0111" y="1" relative="1" as="geometry">
            <mxPoint as="offset" />
          </mxGeometry>
        </mxCell>
        <mxCell id="5UzwqO1FMWDa7kcP7ygJ-106" value="" style="endArrow=classic;html=1;rounded=0;exitX=0.441;exitY=0.978;exitDx=0;exitDy=0;exitPerimeter=0;entryX=0;entryY=0.5;entryDx=0;entryDy=0;" edge="1" parent="1" source="5UzwqO1FMWDa7kcP7ygJ-100" target="5UzwqO1FMWDa7kcP7ygJ-91">
          <mxGeometry width="50" height="50" relative="1" as="geometry">
            <mxPoint x="140" y="600" as="sourcePoint" />
            <mxPoint x="190" y="550" as="targetPoint" />
            <Array as="points">
              <mxPoint x="157" y="550" />
            </Array>
          </mxGeometry>
        </mxCell>
        <mxCell id="5UzwqO1FMWDa7kcP7ygJ-107" value="" style="endArrow=classic;html=1;rounded=0;exitX=0.4;exitY=1.022;exitDx=0;exitDy=0;exitPerimeter=0;entryX=1;entryY=0.5;entryDx=0;entryDy=0;" edge="1" parent="1" source="5UzwqO1FMWDa7kcP7ygJ-103" target="5UzwqO1FMWDa7kcP7ygJ-91">
          <mxGeometry width="50" height="50" relative="1" as="geometry">
            <mxPoint x="700" y="580" as="sourcePoint" />
            <mxPoint x="750" y="530" as="targetPoint" />
            <Array as="points">
              <mxPoint x="598" y="545" />
            </Array>
          </mxGeometry>
        </mxCell>
        <mxCell id="5UzwqO1FMWDa7kcP7ygJ-108" value="" style="endArrow=classic;html=1;rounded=0;exitX=0;exitY=0.5;exitDx=0;exitDy=0;" edge="1" parent="1" source="5UzwqO1FMWDa7kcP7ygJ-94">
          <mxGeometry width="50" height="50" relative="1" as="geometry">
            <mxPoint x="60" y="410" as="sourcePoint" />
            <mxPoint x="160" y="550" as="targetPoint" />
            <Array as="points">
              <mxPoint x="60" y="290" />
              <mxPoint x="60" y="550" />
            </Array>
          </mxGeometry>
        </mxCell>
        <mxCell id="5UzwqO1FMWDa7kcP7ygJ-109" value="" style="endArrow=classic;html=1;rounded=0;exitX=0.5;exitY=1;exitDx=0;exitDy=0;entryX=0.5;entryY=0;entryDx=0;entryDy=0;" edge="1" parent="1" source="5UzwqO1FMWDa7kcP7ygJ-92" target="5UzwqO1FMWDa7kcP7ygJ-93">
          <mxGeometry width="50" height="50" relative="1" as="geometry">
            <mxPoint x="530" y="260" as="sourcePoint" />
            <mxPoint x="580" y="210" as="targetPoint" />
          </mxGeometry>
        </mxCell>
      </root>
    </mxGraphModel>
  </diagram>
</mxfile>
